<svg width="20" height="20" viewBox="0 0 20 20" fill="none" xmlns="http://www.w3.org/2000/svg">
<path d="M15.8333 6.66669C15.1389 6.66669 14.5486 6.42363 14.0625 5.93752C13.5764 5.45141 13.3333 4.86113 13.3333 4.16669C13.3333 3.47224 13.5764 2.88196 14.0625 2.39585C14.5486 1.90974 15.1389 1.66669 15.8333 1.66669C16.5278 1.66669 17.1181 1.90974 17.6042 2.39585C18.0903 2.88196 18.3333 3.47224 18.3333 4.16669C18.3333 4.86113 18.0903 5.45141 17.6042 5.93752C17.1181 6.42363 16.5278 6.66669 15.8333 6.66669ZM3.33333 16.6667C2.875 16.6667 2.48264 16.5035 2.15625 16.1771C1.82986 15.8507 1.66666 15.4584 1.66666 15V5.00002C1.66666 4.54169 1.82986 4.14933 2.15625 3.82294C2.48264 3.49655 2.875 3.33335 3.33333 3.33335H11.75C11.6944 3.61113 11.6667 3.88891 11.6667 4.16669C11.6667 4.44446 11.6944 4.72224 11.75 5.00002C11.8472 5.44446 12.0069 5.85766 12.2292 6.2396C12.4514 6.62155 12.7222 6.95835 13.0417 7.25002L10 9.16669L3.33333 5.00002V6.66669L10 10.8334L14.3958 8.08335C14.6319 8.16669 14.8681 8.22919 15.1042 8.27085C15.3403 8.31252 15.5833 8.33335 15.8333 8.33335C16.2778 8.33335 16.7153 8.26391 17.1458 8.12502C17.5764 7.98613 17.9722 7.7778 18.3333 7.50002V15C18.3333 15.4584 18.1701 15.8507 17.8437 16.1771C17.5174 16.5035 17.125 16.6667 16.6667 16.6667H3.33333Z" fill="#232139"/>
</svg>
